<?xml version="1.0" encoding="UTF-8"?>
<svg id="Layer_2" data-name="Layer 2" xmlns="http://www.w3.org/2000/svg" viewBox="0 0 354.64 335.29">
  <defs>
    <style>
      .cls-1 {
        fill: #c1c7cd;
      }

      .cls-2 {
        fill: #637381;
      }
    </style>
  </defs>
  <g id="_Ñëîé_1" data-name="Ñëîé 1">
    <g>
      <path class="cls-2" d="M328.69,158.16L195.82,65.72h0s-7.5-5.29-7.5-5.29c-3.47-1.91-7.19-2.91-11-2.91s-7.72,1.05-11.34,3.11l-4.57,3.23L27.66,158.16h-6.48c-11.68,0-21.18-9.42-21.18-20.99,0-6.14,2.7-11.95,7.41-15.95l6.3-4.44,.2-.2h.08S165.07,10.05,165.07,10.05c3.96-2.25,8.06-3.37,12.25-3.37s8.1,1.07,11.9,3.17l7.97,5.62h0s150.21,105.92,150.21,105.92c4.62,4.04,7.23,9.77,7.23,15.79,0,11.57-9.5,20.99-21.18,20.99h-4.77Z"/>
      <path class="cls-2" d="M353.79,137.17c0,11.12-9.1,20.14-20.33,20.14h-4.51L196.5,65.16h0s-2.53-1.78-2.53-1.78l-5.16-3.64c-3.59-1.99-7.45-3.06-11.49-3.06s-8.1,1.14-11.76,3.22l-4.63,3.26s0,0,0,0L27.4,157.31h-6.21c-11.23,0-20.33-9.02-20.33-20.14,0-6.12,2.76-11.61,7.11-15.3l2.98-2.1,3.31-2.34s0,0,0,0L160.92,14.02s0,0,0,0l4.63-3.26c3.66-2.08,7.62-3.22,11.76-3.22s7.9,1.08,11.49,3.06l5.16,3.64,2.53,1.78h0s145.77,102.78,145.77,102.78l1.14,.81,3.51,2.47c4.22,3.69,6.87,9.08,6.87,15.09Z"/>
      <polygon class="cls-1" points="44.48 0 89.78 0 89.78 57.85 44.48 89.38 44.48 0"/>
      <polygon class="cls-2" points="45.33 .85 45.33 87.75 88.93 57.41 88.93 .85 45.33 .85"/>
      <path class="cls-1" d="M204.91,335.29l-.22-106.91h-56.36v106.91H58.58c-6.61,0-18.75-5.8-18.75-15.27V163.71L177.06,65.07l143.44,100.62v154.33c0,9.69-19.61,15.27-25.84,15.27h-89.74Z"/>
      <path class="cls-1" d="M319.65,166.13v153.89c0,8.67-18.34,14.42-24.99,14.42h-88.89l-.22-106.91h-58.06v106.91H58.58c-6.65,0-17.9-5.75-17.9-14.42V164.14L177.07,66.11l142.58,100.02h0Z"/>
    </g>
  </g>
</svg>